<svg width="20" height="20" viewBox="0 0 20 20" fill="none" xmlns="http://www.w3.org/2000/svg">
<path d="M18.7793 3.79289L9.77929 0.0428949C9.64058 -0.0142983 9.48488 -0.0142983 9.34617 0.0428949L0.346167 3.79289C0.231924 3.84049 0.136569 3.92444 0.0748743 4.03173C0.0131798 4.13901 -0.0114094 4.26365 0.00491642 4.38633L1.50492 15.6363C1.51702 15.7275 1.55129 15.8143 1.60474 15.8892C1.65818 15.964 1.72917 16.0247 1.81148 16.0657L9.31148 19.8157C9.3895 19.8547 9.47552 19.8749 9.56273 19.8749C9.64994 19.8749 9.73595 19.8547 9.81398 19.8157L17.314 16.0657C17.3963 16.0247 17.4673 15.964 17.5207 15.8892C17.5742 15.8143 17.6084 15.7275 17.6205 15.6363L19.1205 4.38633C19.1369 4.26365 19.1123 4.13901 19.0506 4.03173C18.9889 3.92444 18.8935 3.84049 18.7793 3.79289ZM16.5443 15.1929L9.56273 18.6832L2.58117 15.1929L1.17492 4.66571L9.56273 1.17164L17.9477 4.66571L16.5443 15.1929ZM9.07054 5.53664L5.32054 12.2866C5.24819 12.4172 5.23065 12.5711 5.27179 12.7146C5.31293 12.858 5.40938 12.9793 5.53992 13.0516C5.67045 13.124 5.82439 13.1415 5.96785 13.1004C6.11132 13.0593 6.23256 12.9628 6.30492 12.8323L7.39335 10.8748H11.7321L12.8205 12.8351C12.8693 12.9229 12.9406 12.9961 13.0271 13.047C13.1137 13.098 13.2123 13.1248 13.3127 13.1248C13.408 13.1249 13.5017 13.1004 13.5846 13.0535C13.7149 12.9812 13.8112 12.8601 13.8524 12.7169C13.8935 12.5736 13.8761 12.4199 13.804 12.2895L10.054 5.53946C10.0053 5.45154 9.93403 5.37825 9.84747 5.32722C9.76092 5.27619 9.66227 5.24928 9.56179 5.24928C9.46131 5.24928 9.36267 5.27619 9.27611 5.32722C9.18956 5.37825 9.11825 5.45154 9.0696 5.53946L9.07054 5.53664ZM11.1068 9.74977H8.01867L9.56273 6.97008L11.1068 9.74977Z" fill="black"/>
</svg>
